<?xml version="1.0" standalone="no"?>
<!DOCTYPE svg PUBLIC "-//W3C//DTD SVG 20010904//EN"
 "http://www.w3.org/TR/2001/REC-SVG-20010904/DTD/svg10.dtd">
<svg version="1.0" xmlns="http://www.w3.org/2000/svg"
 width="595.000000pt" height="368.000000pt" viewBox="0 0 595.000000 368.000000"
 preserveAspectRatio="xMidYMid meet">

<g transform="translate(0.000000,368.000000) scale(0.100000,-0.100000)"
fill="#000000" stroke="none">
<path d="M4285 3470 c-280 -29 -572 -207 -745 -452 -66 -93 -102 -165 -143
-281 -30 -88 -32 -98 -31 -247 0 -121 5 -177 22 -256 41 -190 107 -381 192
-561 142 -297 278 -464 370 -449 58 9 168 94 326 251 216 215 404 447 559 691
l76 119 -59 17 c-74 22 -139 78 -171 147 -14 28 -22 53 -20 55 2 3 36 -4 74
-15 39 -11 113 -22 166 -26 l96 -6 23 59 c75 201 63 435 -33 619 -19 36 -64
93 -112 141 -65 66 -98 89 -166 122 -134 64 -273 88 -424 72z m602 -420 c86
-52 44 -190 -59 -190 -33 0 -47 7 -75 35 -32 32 -35 39 -30 78 11 83 92 121
164 77z"/>
<path d="M4769 3032 c-45 -40 -45 -94 -1 -133 43 -39 84 -38 123 0 47 48 38
116 -21 146 -42 22 -66 19 -101 -13z"/>
<path d="M1352 3183 c395 -2 1041 -2 1436 0 394 1 71 2 -718 2 -789 0 -1112
-1 -718 -2z"/>
<path d="M750 2793 c0 -7 1592 -7 2190 0 129 1 -311 3 -977 5 -667 1 -1213 -1
-1213 -5z"/>
<path d="M1420 2399 c690 -8 1832 -8 1595 2 -99 3 -614 6 -1145 6 -851 -1
-904 -2 -450 -8z"/>
<path d="M1573 2113 c306 -2 808 -2 1115 0 306 1 55 2 -558 2 -613 0 -864 -1
-557 -2z"/>
<path d="M2305 1920 l-810 -5 908 -3 c599 -1 907 1 907 8 0 6 -38 9 -97 8 -54
-2 -462 -5 -908 -8z"/>
<path d="M2125 1590 l-1260 -5 1328 -3 c879 -1 1327 1 1327 8 0 6 -28 9 -67 8
-38 -2 -635 -5 -1328 -8z"/>
<path d="M5113 1178 c-41 -44 -103 -139 -97 -149 5 -9 171 65 196 88 24 22 23
69 -1 83 -35 18 -66 11 -98 -22z"/>
<path d="M1431 964 c-137 -49 -227 -161 -253 -313 -31 -184 58 -363 220 -439
51 -24 69 -27 162 -27 94 1 111 3 163 29 202 98 281 351 177 563 -36 72 -97
131 -179 170 -71 34 -219 43 -290 17z m225 -59 c32 -19 50 -39 71 -82 28 -57
28 -61 28 -238 0 -173 -1 -182 -26 -236 -34 -72 -83 -110 -148 -117 -66 -6
-113 12 -155 58 -52 58 -69 128 -69 285 -1 185 31 277 112 332 48 33 129 32
187 -2z"/>
<path d="M3084 644 c-76 -186 -149 -350 -162 -365 -12 -15 -36 -30 -52 -34
-21 -5 -30 -13 -30 -26 0 -18 9 -19 145 -19 135 0 145 1 145 19 0 14 -10 20
-39 25 -26 4 -47 15 -61 33 -24 31 -23 52 9 126 l20 47 140 0 139 0 17 -42
c58 -140 57 -136 33 -153 -13 -8 -37 -15 -55 -15 -26 0 -33 -4 -33 -20 0 -19
7 -20 180 -20 173 0 180 1 180 20 0 15 -7 20 -26 20 -14 0 -34 10 -45 22 -11
13 -84 178 -163 368 -140 339 -143 345 -172 348 l-30 3 -140 -337z m179 -11
c30 -73 52 -135 49 -138 -3 -3 -57 -5 -120 -5 -104 0 -114 1 -108 18 40 108
112 270 117 264 4 -4 32 -66 62 -139z"/>
<path d="M4946 648 c-76 -183 -149 -347 -162 -365 -13 -17 -37 -34 -54 -38
-21 -5 -30 -13 -30 -26 0 -18 9 -19 145 -19 135 0 145 1 145 19 0 14 -10 20
-39 25 -26 4 -47 15 -61 33 -24 31 -23 52 9 126 l20 47 139 0 139 0 32 -75
c17 -41 31 -83 31 -94 0 -25 -28 -41 -69 -41 -24 0 -31 -4 -31 -20 0 -19 7
-20 180 -20 173 0 180 1 180 20 0 15 -7 20 -25 20 -14 0 -35 10 -47 23 -12 12
-85 177 -163 367 -139 340 -142 345 -172 348 l-30 3 -137 -333z m173 -7 c28
-68 51 -130 51 -137 0 -11 -25 -14 -116 -14 -106 0 -116 1 -110 18 36 100 111
270 117 265 4 -5 30 -64 58 -132z"/>
<path d="M350 946 c0 -23 4 -26 36 -26 19 0 44 -5 55 -10 18 -10 19 -24 19
-318 0 -350 0 -352 -71 -352 -32 0 -39 -3 -39 -20 0 -19 7 -20 257 -20 288 0
342 8 408 63 65 54 84 141 45 216 -23 45 -69 77 -148 101 l-56 18 52 22 c162
70 175 247 24 322 -45 22 -58 23 -314 26 l-268 4 0 -26z m460 -50 c78 -35 79
-201 1 -253 -28 -19 -47 -23 -113 -23 l-79 0 3 142 c3 142 3 142 28 149 32 9
127 0 160 -15z m-8 -338 c120 -36 143 -229 35 -293 -39 -23 -180 -34 -202 -15
-12 10 -15 41 -15 166 l0 154 71 0 c40 0 89 -5 111 -12z"/>
<path d="M2060 946 c0 -23 4 -26 38 -26 70 0 67 14 70 -329 3 -301 2 -311 -18
-331 -12 -12 -33 -20 -55 -20 -28 0 -35 -4 -35 -20 0 -19 7 -20 190 -20 183 0
190 1 190 20 0 16 -7 20 -36 20 -73 0 -74 2 -74 175 l0 155 44 0 c33 0 52 -7
75 -26 33 -27 45 -61 76 -209 14 -65 23 -85 51 -113 33 -33 37 -34 96 -30 53
4 65 9 89 36 26 29 49 86 49 125 0 12 -8 17 -25 17 -21 0 -25 -5 -25 -28 0
-35 -22 -67 -41 -60 -8 3 -27 47 -43 98 -35 112 -75 168 -135 191 l-43 15 54
12 c65 15 124 48 151 83 21 29 33 103 23 143 -10 41 -62 92 -118 117 -50 21
-68 23 -300 27 l-248 4 0 -26z m398 -37 c71 -15 95 -44 100 -123 7 -113 -47
-165 -171 -166 l-58 0 3 142 c3 142 3 142 28 149 36 10 44 10 98 -2z"/>
<path d="M4000 945 c0 -23 4 -25 43 -25 24 0 48 -5 55 -12 9 -9 12 -96 12
-330 0 -303 -1 -318 -19 -328 -11 -5 -36 -10 -55 -10 -29 0 -36 -4 -36 -20 0
-20 7 -20 333 -20 l334 0 6 98 c12 167 10 192 -12 192 -15 0 -23 -13 -35 -52
-19 -68 -64 -138 -107 -168 -27 -20 -49 -25 -119 -28 -141 -7 -130 -37 -130
336 0 234 3 321 12 330 7 7 34 12 61 12 44 0 48 2 45 23 -3 22 -4 22 -195 25
l-193 2 0 -25z"/>
</g>
</svg>
